<svg xmlns="http://www.w3.org/2000/svg" viewBox="0 0 1600 1000" preserveAspectRatio="xMidYMid slice"><defs><linearGradient id="sky" x2="0" y2="1"><stop stop-color="#173b3a"/><stop offset=".6" stop-color="#789681"/><stop offset="1" stop-color="#b4b596"/></linearGradient><radialGradient id="sun"><stop stop-color="#f3d9a0" stop-opacity=".7"/><stop offset="1" stop-color="#e2d8a1" stop-opacity="0"/></radialGradient><linearGradient id="mist" x2="0" y2="1"><stop stop-color="#c5d4bb" stop-opacity=".02"/><stop offset="1" stop-color="#d8d9b5" stop-opacity=".45"/></linearGradient><g id="pine"><path d="M0 0L-48 108L-20 101L-72 178L-29 167L-91 250H91L29 167L72 178L20 101L48 108Z"/><path d="M-8 231H8V310H-8Z"/></g><g id="window"><path d="M-5 0V-14Q0-24 5-14V0Z" fill="#e6d79b"/></g></defs><path fill="url(#sky)" d="M0 0H1600V1000H0Z"/><ellipse cx="550" cy="300" rx="550" ry="470" fill="url(#sun)"/><circle cx="600" cy="235" r="78" fill="#efdbac" opacity=".68"/><path d="M0 505L150 388L260 449L393 332L525 468L691 360L891 502L1120 325L1320 465L1470 375L1600 443V1000H0Z" fill="#55766d"/><path d="M0 569Q220 442 423 519Q589 380 849 517Q1117 415 1600 522V1000H0Z" fill="#486c60"/><g fill="#304f49"><path d="M448 470V342H478V320H493V342H523V475ZM540 475V317H567V290H582V317H609V475ZM611 475V365H643V339H656V365H686V485Z"/><path d="M450 343L486 295L523 343ZM540 320L574 255L611 320ZM608 365L650 317L690 365Z" fill="#263e3c"/><path d="M488 470V393H550V480M570 490V404H640V499"/><use href="#window" x="483" y="382"/><use href="#window" x="576" y="359"/><use href="#window" x="649" y="404"/><path d="M550 486V456Q573 421 596 456V486Z" fill="#192f30"/><path d="M574 255V221L608 235L574 242Z" fill="#caa466"/></g><path d="M0 580Q278 495 521 516Q726 481 1022 566L1600 530V719H0Z" fill="url(#mist)"/><path d="M0 754Q318 544 600 568Q1007 556 1600 704V1000H0Z" fill="#34594b"/><path d="M573 490Q507 556 577 610Q768 700 575 816L405 1000H828Q892 835 732 732Q576 644 653 588Q674 551 595 490Z" fill="#b6b18b" opacity=".40"/><g fill="#214b42"><use href="#pine" x="200" y="370" transform="rotate(-5 200 600)"/><use href="#pine" x="344" y="451"/><use href="#pine" x="876" y="419"/><use href="#pine" x="994" y="363"/><use href="#pine" x="1400" y="373"/></g><g fill="#143a35"><use href="#pine" transform="translate(90 90) scale(2.4)"/><use href="#pine" transform="translate(1540 80) scale(2.6)"/><use href="#pine" transform="translate(1260 380) scale(1.8)"/><path d="M0 890Q323 709 489 1000H0ZM1600 748Q1257 771 1102 1000H1600Z"/></g><g fill="none" stroke="#83a57e" stroke-width="7" opacity=".4"><path d="M30 1000Q95 821 173 811M78 927L28 860M85 911L157 887M109 863L80 812M116 859L177 846M1470 1000Q1459 880 1380 837M1457 929L1508 881M1449 907L1379 903"/></g><g fill="#e2cd87" opacity=".7"><circle cx="316" cy="618" r="3"/><circle cx="816" cy="605" r="2"/><circle cx="938" cy="762" r="3"/><circle cx="199" cy="782" r="2"/><circle cx="691" cy="426" r="2"/><circle cx="1128" cy="400" r="2"/></g></svg>
